<svg version="1.1" xmlns="http://www.w3.org/2000/svg" xmlns:xlink="http://www.w3.org/1999/xlink" x="0px" y="0px"
	 viewBox="0 0 50 50" enable-background="new 0 0 50 50" xml:space="preserve">
<circle fill-rule="evenodd" clip-rule="evenodd" fill="#151515" cx="25" cy="25" r="25"/>
<polygon fill-rule="evenodd" clip-rule="evenodd" fill="#FFFFFF" points="25.3,13.2 20.6,17.3 29.9,17.3
	"/>
<path fill="#FFFFFF" d="M15.8,27.6h-2.5v-2h7.4v2h-2.5V34h-2.3V27.6z M21.3,30.8L21.3,30.8
	c0-1.9,1.5-3.4,3.6-3.4c2.1,0,3.6,1.5,3.6,3.4v0c0,1.8-1.5,3.4-3.6,3.4C22.8,34.2,21.3,32.6,21.3,30.8z M26.2,30.8L26.2,30.8
	c0-0.8-0.6-1.5-1.4-1.5c-0.8,0-1.4,0.7-1.4,1.4v0c0,0.8,0.6,1.5,1.4,1.5C25.7,32.2,26.2,31.6,26.2,30.8z M29.4,27.5h2.3v0.9
	c0.4-0.5,1-1,2-1c1.5,0,2.9,1.3,2.9,3.4v0c0,2.1-1.3,3.4-2.9,3.4c-1,0-1.6-0.4-2-0.9v2.7h-2.3V27.5z M34.3,30.8L34.3,30.8
	c0-0.9-0.6-1.5-1.3-1.5c-0.7,0-1.3,0.6-1.3,1.5v0c0,0.9,0.6,1.5,1.3,1.5C33.7,32.2,34.3,31.6,34.3,30.8z"/>
</svg>
