<svg version="1.1" xmlns="http://www.w3.org/2000/svg" xmlns:xlink="http://www.w3.org/1999/xlink" x="0px"
	 y="0px" viewBox="0 0 35 35" enable-background="new 0 0 35 35" xml:space="preserve">
<path fill-rule="evenodd" clip-rule="evenodd" fill="#151515" d="M15.6,10c-3.1,0-5.6,2.5-5.6,5.6
	c0,3.1,2.5,5.6,5.6,5.6s5.6-2.5,5.6-5.6C21.2,12.5,18.7,10,15.6,10z M15.6,8c4.2,0,7.6,3.4,7.6,7.6c0,1.7-0.6,3.3-1.6,4.6l5.3,5.3
	L25.6,27l-5.3-5.3c-1.3,1-2.9,1.6-4.6,1.6c-4.2,0-7.6-3.4-7.6-7.6C8,11.4,11.4,8,15.6,8z"/>
</svg>
