<svg version="1.1" xmlns="http://www.w3.org/2000/svg" xmlns:xlink="http://www.w3.org/1999/xlink" x="0px" y="0px"
	 viewBox="0 0 18 18" enable-background="new 0 0 18 18" xml:space="preserve">
<path fill-rule="evenodd" clip-rule="evenodd" fill="#FFFFFF" d="M5.2,14.3H2.8c1,1.2,2.3,2.1,3.9,2.5
	c-0.4-0.4-0.8-1-1.1-1.6C5.4,15,5.3,14.6,5.2,14.3z M8.6,14.3H6c0.1,0.2,0.2,0.4,0.3,0.6c0.6,1.3,1.4,2.1,2.3,2.2V14.3z M12,14.3
	H9.4v2.8c0.8-0.2,1.6-1,2.3-2.2C11.8,14.7,11.9,14.5,12,14.3z M15.2,14.3h-2.4c-0.1,0.3-0.3,0.6-0.4,0.9c-0.3,0.6-0.7,1.2-1.1,1.6
	C12.9,16.4,14.2,15.5,15.2,14.3z M4.4,11H1.1c0.2,0.9,0.6,1.7,1.1,2.5h2.7C4.7,12.7,4.5,11.9,4.4,11z M8.6,11H5.2
	c0.1,0.9,0.3,1.7,0.5,2.5h2.8V11z M12.8,11H9.4v2.5h2.8C12.5,12.8,12.7,11.9,12.8,11z M16.9,11h-3.3c-0.1,0.9-0.3,1.7-0.5,2.5h2.7
	C16.3,12.8,16.7,11.9,16.9,11z M4.3,7.8H0.9C0.9,8.2,0.8,8.6,0.8,9c0,0.4,0,0.8,0.1,1.2h3.4c0-0.4,0-0.8,0-1.2
	C4.3,8.6,4.3,8.2,4.3,7.8z M8.6,7.8H5.2c0,0.4,0,0.8,0,1.2c0,0.4,0,0.8,0,1.2h3.4V7.8z M12.8,7.8H9.4v2.5h3.4c0-0.4,0-0.8,0-1.2
	C12.9,8.6,12.9,8.2,12.8,7.8z M17.1,7.8h-3.4c0,0.4,0,0.8,0,1.2c0,0.4,0,0.8,0,1.2h3.4c0.1-0.4,0.1-0.8,0.1-1.2
	C17.2,8.6,17.1,8.2,17.1,7.8z M4.9,4.5H2.2C1.7,5.2,1.3,6.1,1.1,7h3.3C4.5,6.1,4.7,5.3,4.9,4.5z M8.6,4.5H5.8C5.5,5.2,5.3,6.1,5.2,7
	h3.4V4.5z M12.2,4.5H9.4V7h3.4C12.7,6.1,12.5,5.2,12.2,4.5z M15.8,4.5h-2.7c0.2,0.8,0.4,1.6,0.5,2.5h3.3C16.7,6.1,16.3,5.2,15.8,4.5
	z M6.6,1.2C5.1,1.6,3.8,2.5,2.8,3.7h2.4C5.3,3.4,5.4,3,5.6,2.7C5.9,2.1,6.2,1.6,6.6,1.2z M11.4,1.2c0.4,0.4,0.8,1,1.1,1.6
	c0.1,0.3,0.3,0.6,0.4,0.9h2.4C14.2,2.5,12.9,1.6,11.4,1.2z M8.6,0.9c-0.8,0.2-1.6,1-2.3,2.2C6.2,3.3,6.1,3.5,6.1,3.7h2.5V0.9z
	 M9.4,0.9v2.8h2.5c-0.1-0.2-0.2-0.4-0.3-0.6C11.1,1.8,10.3,1.1,9.4,0.9z M9,0c5,0,9,4,9,9s-4,9-9,9s-9-4-9-9S4,0,9,0z"/>
</svg>
