<svg version="1.1" xmlns="http://www.w3.org/2000/svg" xmlns:xlink="http://www.w3.org/1999/xlink" x="0px"
	 y="0px" viewBox="0 0 198.7 137.1" enable-background="new 0 0 198.7 137.1" xml:space="preserve">
<path fill-rule="evenodd" clip-rule="evenodd" fill="#151515" d="M0.8,110.5l2-2.3
	c1.4,1.1,2.8,1.8,4.5,1.8c1.4,0,2.2-0.5,2.2-1.4v0c0-0.8-0.5-1.3-3-1.9c-3-0.8-5-1.6-5-4.6v0c0-2.7,2.2-4.5,5.3-4.5
	c2.2,0,4.1,0.7,5.6,1.9l-1.7,2.5c-1.3-0.9-2.6-1.5-3.9-1.5s-1.9,0.6-1.9,1.3v0c0,1,0.6,1.3,3.2,2c3.1,0.8,4.8,1.9,4.8,4.5v0
	c0,3-2.3,4.7-5.5,4.7C4.9,112.9,2.6,112.1,0.8,110.5z M15.3,112.7h3.3V97.6h-3.3V112.7z M21.9,112.7h10.8v-3h-7.5v-12h-3.3V112.7z
	 M37.9,112.8h2.9l6.1-15.2h-3.6l-3.9,10.6l-3.9-10.6h-3.7L37.9,112.8z M48.8,112.7h11.5v-2.9h-8.2v-3.2h7.1v-2.9h-7.1v-3.1h8.1v-2.9
	H48.8V112.7z M66.1,104.9v-4.3h3.3c1.6,0,2.6,0.7,2.6,2.2v0c0,1.3-0.9,2.1-2.5,2.1H66.1z M62.8,112.7h3.3v-4.8h2.6h0l3.2,4.8h3.9
	l-3.7-5.4c1.9-0.7,3.2-2.2,3.2-4.7v0c0-1.4-0.5-2.6-1.3-3.4c-1-1-2.5-1.5-4.4-1.5h-6.9V112.7z M82.9,110.5c1.8,1.6,4.1,2.4,6.4,2.4
	c3.2,0,5.5-1.7,5.5-4.7v0c0-2.6-1.7-3.7-4.8-4.5c-2.6-0.7-3.2-1-3.2-2v0c0-0.7,0.7-1.3,1.9-1.3s2.6,0.6,3.9,1.5l1.7-2.5
	c-1.5-1.2-3.4-1.9-5.6-1.9c-3.1,0-5.3,1.8-5.3,4.5v0c0,3,2,3.8,5,4.6c2.5,0.6,3,1.1,3,1.9v0c0,0.9-0.8,1.4-2.2,1.4
	c-1.7,0-3.1-0.7-4.5-1.8L82.9,110.5z M96.6,105.2c0,4.3,3.3,7.7,7.7,7.7c2.9,0,4.6-1,6.2-2.7l-2.1-2.1c-1.2,1.1-2.2,1.8-4,1.8
	c-2.6,0-4.4-2.2-4.4-4.7v0c0-2.6,1.8-4.7,4.4-4.7c1.5,0,2.7,0.6,3.8,1.7l2.1-2.4c-1.4-1.4-3.1-2.3-5.9-2.3
	C99.9,97.4,96.6,100.9,96.6,105.2L96.6,105.2z M112.8,112.7h3.3v-6h6.1v6h3.3V97.6h-3.3v6h-6.1v-6h-3.3V112.7z M140.6,105.2
	c0,2.6-1.8,4.7-4.5,4.7c-2.7,0-4.6-2.2-4.6-4.7v0c0-2.6,1.8-4.7,4.5-4.7C138.7,100.4,140.6,102.6,140.6,105.2L140.6,105.2z
	 M128,105.2c0,4.3,3.3,7.7,8,7.7c4.6,0,8-3.5,8-7.8v0c0-4.3-3.3-7.7-8-7.7C131.4,97.4,128,100.9,128,105.2L128,105.2z M158.4,105.2
	c0,2.6-1.8,4.7-4.5,4.7c-2.7,0-4.6-2.2-4.6-4.7v0c0-2.6,1.8-4.7,4.5-4.7C156.5,100.4,158.4,102.6,158.4,105.2L158.4,105.2z
	 M145.9,105.2c0,4.3,3.3,7.7,8,7.7c4.6,0,8-3.5,8-7.8v0c0-4.3-3.3-7.7-8-7.7C149.3,97.4,145.9,100.9,145.9,105.2L145.9,105.2z
	 M164.4,112.7h10.8v-3h-7.5v-12h-3.3V112.7z M13.7,129.4c0,2.6-1.9,4.7-4.5,4.7s-4.6-2.2-4.6-4.7v0c0-2.6,1.9-4.7,4.5-4.7
	C11.8,124.6,13.7,126.8,13.7,129.4L13.7,129.4z M1.1,129.4c0,4.3,3.3,7.7,8,7.7s8-3.5,8-7.8v0c0-4.3-3.3-7.7-8-7.7
	C4.5,121.6,1.1,125.1,1.1,129.4L1.1,129.4z M19.7,136.9H23v-5.8h7.2v-3H23v-3.2h8.2v-3H19.7V136.9z M38.3,134.7
	c1.8,1.6,4.1,2.4,6.4,2.4c3.2,0,5.5-1.7,5.5-4.7v0c0-2.6-1.7-3.7-4.8-4.5c-2.6-0.7-3.2-1-3.2-2v0c0-0.7,0.7-1.3,1.9-1.3
	c1.3,0,2.6,0.6,3.9,1.5l1.7-2.5c-1.5-1.2-3.4-1.9-5.6-1.9c-3.1,0-5.3,1.8-5.3,4.5v0c0,3,2,3.8,5,4.6c2.5,0.6,3,1.1,3,1.9v0
	c0,0.9-0.8,1.4-2.2,1.4c-1.7,0-3.1-0.7-4.5-1.8L38.3,134.7z M64.6,129.4c0,2.6-1.9,4.7-4.5,4.7c-2.7,0-4.6-2.2-4.6-4.7v0
	c0-2.6,1.9-4.7,4.5-4.7C62.7,124.6,64.6,126.8,64.6,129.4L64.6,129.4z M52.1,129.4c0,4.3,3.3,7.7,8,7.7c4.6,0,8-3.5,8-7.8v0
	c0-4.3-3.3-7.7-8-7.7C55.4,121.6,52.1,125.1,52.1,129.4L52.1,129.4z M69.9,129.4c0,4.3,3.3,7.7,7.7,7.7c2.9,0,4.6-1,6.2-2.7
	l-2.1-2.1c-1.2,1.1-2.2,1.8-4,1.8c-2.6,0-4.4-2.2-4.4-4.7v0c0-2.6,1.8-4.7,4.4-4.7c1.5,0,2.7,0.6,3.8,1.7l2.1-2.4
	c-1.4-1.4-3.1-2.3-5.9-2.3C73.1,121.6,69.9,125.1,69.9,129.4L69.9,129.4z M86.2,136.9h3.3v-15.1h-3.3V136.9z M97.5,130.6l2-4.9
	l2,4.9H97.5z M91.5,136.9h3.4l1.4-3.4h6.4l1.4,3.4h3.5l-6.5-15.2H98L91.5,136.9z M109.4,136.9h10.8v-3h-7.5v-12h-3.3V136.9z
	 M132.3,137h2.9l3.4-9.8l3.4,9.8h2.9l5.1-15.2h-3.5l-3.1,10.2l-3.4-10.2h-2.8l-3.4,10.2l-3.1-10.2h-3.5L132.3,137z M163.9,129.4
	c0,2.6-1.9,4.7-4.5,4.7c-2.7,0-4.6-2.2-4.6-4.7v0c0-2.6,1.8-4.7,4.5-4.7C162,124.6,163.9,126.8,163.9,129.4L163.9,129.4z
	 M151.4,129.4c0,4.3,3.3,7.7,8,7.7c4.6,0,8-3.5,8-7.8v0c0-4.3-3.3-7.7-8-7.7C154.7,121.6,151.4,125.1,151.4,129.4L151.4,129.4z
	 M173.2,129.1v-4.3h3.3c1.6,0,2.6,0.7,2.6,2.2v0c0,1.3-0.9,2.1-2.5,2.1H173.2z M169.9,136.9h3.3v-4.8h2.6h0l3.2,4.8h3.9l-3.7-5.4
	c1.9-0.7,3.2-2.2,3.2-4.7v0c0-1.4-0.4-2.6-1.3-3.4c-1-1-2.5-1.5-4.4-1.5h-6.9V136.9z M185,136.9h3.3v-4.6l1.7-1.8l4.7,6.4h4
	l-6.4-8.7l6.1-6.4h-4l-6.1,6.6v-6.6H185V136.9z M0,73.5h48.4v-1.1H0V73.5z"/>
<path fill-rule="evenodd" clip-rule="evenodd" fill="#56058C" d="M61,10.6h5.6l12.9,16.9V10.6h6v27.5
	h-5.1L66.9,20.7v17.5h-6V10.6z M99,38.1h6.1v-11l10.6-16.5h-6.9l-6.7,11l-6.6-11h-7.1L99,27.3V38.1z M118.2,26.4
	c0,8.1,4.5,12.2,11.9,12.2c7.4,0,12.1-4.1,12.1-12.4V10.6h-6v15.8c0,4.4-2.2,6.6-5.9,6.6c-3.7,0-5.9-2.3-5.9-6.8V10.6h-6V26.4z
	 M21.3,25.3c0.1,0,0.1,0.1,0,0.1c-7.8-0.2-7.8-5.9-6.2-8.5c1.5-2.4,2.4-4.6,2.5-5.4c0-0.1,0.1-0.1,0.2,0c0.3,0.5,1.1,2.4,1.2,3.1
	c0,0.1,0,0.2,0,0.3C16.9,18.1,16.4,22.3,21.3,25.3z M22.7,25C22.7,25.1,22.6,25.1,22.7,25c-4.9-3.1-5.9-6.4-1.3-11.8
	c0.5-0.6,3.2-3.6,3.8-5.5c0-0.1,0.1-0.1,0.1,0c0.4,0.5,1.5,3.7,1.5,5.7c0,0.1,0,0.3-0.1,0.4C25.6,14.6,19.7,18.7,22.7,25z
	 M23.6,24.8c0,0.1-0.1,0.1-0.1,0c-2.4-5.7,2.3-9.2,3.6-10.2c0.9-0.7,2.1-2.3,2.8-3.9c0,0,0.1-0.1,0.1,0c0.4,0.4,1.8,3.9,1,5.9
	C30.5,17.9,25,18,23.6,24.8z M24.6,25.4C24.6,25.3,24.5,25.3,24.6,25.4c0.2-2.6,1.9-5.4,4.8-6.6c3.2-1.4,4.4-3.6,4.6-4.2
	c0-0.1,0.1-0.1,0.1,0.1C34.1,17.6,33.5,25.7,24.6,25.4z M19.6,28.4h7v-2h-7V28.4z M21.1,29.3h4.1l-1.7,13.4c-0.2,0.5-0.9,0.3-1,0
	L21.1,29.3z M0,48.4h48.4V0H0V48.4z"/>
</svg>
