<svg version="1.1" xmlns="http://www.w3.org/2000/svg" xmlns:xlink="http://www.w3.org/1999/xlink" x="0px" y="0px"
	 viewBox="0 0 168.57 27" enable-background="new 0 0 168.57 27" xml:space="preserve">
<path d="M93.14,18.89l1.98-2.37c1.37,1.13,2.8,1.85,4.54,1.85c1.37,0,2.2-0.54,2.2-1.43v-0.04
	c0-0.85-0.52-1.28-3.07-1.94c-3.07-0.78-5.04-1.63-5.04-4.65v-0.04c0-2.76,2.22-4.59,5.33-4.59c2.22,0,4.11,0.7,5.65,1.93
	l-1.74,2.52c-1.35-0.94-2.68-1.5-3.96-1.5c-1.28,0-1.96,0.59-1.96,1.33V10c0,1,0.65,1.33,3.28,2c3.09,0.8,4.83,1.91,4.83,4.57v0.04
	c0,3.02-2.3,4.72-5.59,4.72C97.3,21.33,94.97,20.52,93.14,18.89z M107.82,5.89h3.35v15.22h-3.35V5.89z M114.54,5.89h3.35v12.18h7.59
	v3.04h-10.94V5.89z M124.09,5.89h3.7l3.98,10.72l3.98-10.72h3.61l-6.15,15.33h-2.96L124.09,5.89z M141.27,5.89h11.48v2.98h-8.15
	v3.09h7.18v2.98h-7.18v3.2h8.26v2.98h-11.59V5.89z M155.41,5.89h6.96c1.94,0,3.44,0.54,4.44,1.54c0.85,0.85,1.3,2.04,1.3,3.48v0.04
	c0,2.46-1.33,4-3.26,4.72l3.72,5.44h-3.91l-3.26-4.87h-0.04h-2.59v4.87h-3.35V5.89z M162.15,13.28c1.63,0,2.56-0.87,2.56-2.15v-0.04
	c0-1.44-1-2.17-2.63-2.17h-3.33v4.37H162.15z M86.87,0h-0.59v27h0.59V0z"/>
<path d="M34,5.94h3.11l7.19,9.44V5.94h3.33v15.34h-2.87l-7.43-9.75v9.75H34V5.94z M55.2,15.22
	l-5.89-9.29h3.95l3.66,6.16l3.72-6.16h3.83l-5.89,9.22v6.11H55.2V15.22z M65.92,14.7V5.94h3.37v8.68c0,2.5,1.25,3.79,3.31,3.79
	c2.06,0,3.31-1.25,3.31-3.68V5.94h3.37v8.65c0,4.64-2.61,6.92-6.72,6.92C68.44,21.51,65.92,19.21,65.92,14.7z M27,27H0V0h27V27
	L27,27z"/>
<path fill="#FFFFFF" d="M12.56,23.84c0.03,0.19,0.44,0.28,0.53,0l0.94-7.48h-2.29L12.56,23.84
	L12.56,23.84z M14.84,15.82v-1.13h-3.9v1.13H14.84L14.84,15.82z M13.72,14.14c4.94,0.18,5.29-4.32,5.31-6.01
	c0-0.1-0.05-0.11-0.07-0.04c-0.14,0.35-0.79,1.61-2.57,2.37c-1.59,0.68-2.55,2.23-2.71,3.62C13.67,14.12,13.7,14.14,13.72,14.14z
	 M13.18,13.81c0.78-3.75,3.83-3.84,4.11-4.55c0.43-1.11-0.35-3.08-0.55-3.31c-0.02-0.02-0.05-0.01-0.06,0.01
	c-0.42,0.91-1.09,1.77-1.58,2.17c-0.69,0.56-3.34,2.52-1.99,5.68C13.13,13.85,13.17,13.84,13.18,13.81z M12.64,13.96
	c-1.65-3.53,1.65-5.82,2.19-6.31c0.08-0.07,0.06-0.13,0.06-0.21c0-1.11-0.64-2.91-0.84-3.17c-0.03-0.04-0.06-0.02-0.07,0.02
	c-0.28,1.1-1.79,2.73-2.09,3.09c-2.56,3.04-1.97,4.89,0.7,6.63C12.62,14.02,12.66,14,12.64,13.96z M11.9,14.08
	c-2.77-1.65-2.49-4.01-1.34-5.74c0.02-0.04,0.03-0.1,0.03-0.17c-0.05-0.41-0.5-1.45-0.68-1.74C9.84,6.36,9.8,6.37,9.8,6.42
	C9.78,6.89,9.25,8.07,8.43,9.43c-0.87,1.45-0.88,4.59,3.46,4.72C11.93,14.15,11.94,14.11,11.9,14.08z"/>
</svg>
