<svg version="1.1" xmlns="http://www.w3.org/2000/svg" xmlns:xlink="http://www.w3.org/1999/xlink" x="0px"
	 y="0px" viewBox="0 0 23 18.9" enable-background="new 0 0 23 18.9" xml:space="preserve">
<path d="M23,2.2c-0.8,0.3-1.7,0.6-2.7,0.8c0.9-0.6,1.7-1.6,2-2.7c-0.9,0.5-1.9,0.9-3,1.1
	c-0.8-0.8-2-1.4-3.5-1.4c-2.7,0-4.7,2-4.7,4.7c0,0.3,0,0.8,0.2,1.1c-3.9-0.2-7.4-2-9.8-5C1.3,1.6,0.9,2.4,0.9,3.3
	c0,1.6,0.8,3.2,2,3.9c-0.8,0-1.6-0.3-2.2-0.6l0,0c0,2.4,1.6,4.3,3.8,4.6c-0.3,0.2-0.6,0.3-1.1,0.3c-0.3,0-0.6,0-0.9,0
	c0.6,1.9,2.4,3.2,4.4,3.3c-1.6,1.3-3.6,2-5.8,2c-0.5,0-0.8,0-1.1,0c2,1.4,4.6,2,7.2,2c8.7,0,13.4-7.2,13.4-13.4c0-0.2,0-0.5,0-0.6
	C21.6,3.9,22.4,3.2,23,2.2"/>
</svg>
