<svg version="1.1" xmlns="http://www.w3.org/2000/svg" xmlns:xlink="http://www.w3.org/1999/xlink" x="0px"
	 y="0px" viewBox="0 0 27 18.6" enable-background="new 0 0 27 18.6" xml:space="preserve">
<path d="M26.7,4c0,0-0.3-1.8-1.1-2.6c-1-1.1-2.2-1.1-2.7-1.1C19.2,0,13.5,0,13.5,0h0
	c0,0-5.7,0-9.4,0.3C3.5,0.3,2.4,0.3,1.3,1.4C0.5,2.2,0.3,4,0.3,4S0,6.1,0,8.3v2c0,2.1,0.3,4.3,0.3,4.3s0.3,1.8,1.1,2.6
	c1,1.1,2.4,1,3,1.1c2.2,0.2,9.2,0.3,9.2,0.3s5.7,0,9.5-0.3c0.5-0.1,1.7-0.1,2.7-1.1c0.8-0.8,1.1-2.6,1.1-2.6s0.3-2.1,0.3-4.3v-2
	C27,6.1,26.7,4,26.7,4z M10.7,13V5.5l7.2,3.6L10.7,13z"/>
</svg>
